<svg width="42" height="42" viewBox="0 0 42 42" fill="none" xmlns="http://www.w3.org/2000/svg">
<circle cx="21" cy="21" r="21" fill="#9E9E9E"/>
<path d="M13.5 21C14.8807 21 16 19.8807 16 18.5C16 17.1193 14.8807 16 13.5 16C12.1193 16 11 17.1193 11 18.5C11 19.8807 12.1193 21 13.5 21Z" fill="#5F5F5F"/>
<path d="M18 17C19.3807 17 20.5 15.8807 20.5 14.5C20.5 13.1193 19.3807 12 18 12C16.6193 12 15.5 13.1193 15.5 14.5C15.5 15.8807 16.6193 17 18 17Z" fill="#5F5F5F"/>
<path d="M24 17C25.3807 17 26.5 15.8807 26.5 14.5C26.5 13.1193 25.3807 12 24 12C22.6193 12 21.5 13.1193 21.5 14.5C21.5 15.8807 22.6193 17 24 17Z" fill="#5F5F5F"/>
<path d="M28.5 21C29.8807 21 31 19.8807 31 18.5C31 17.1193 29.8807 16 28.5 16C27.1193 16 26 17.1193 26 18.5C26 19.8807 27.1193 21 28.5 21Z" fill="#5F5F5F"/>
<path d="M26.3399 23.86C25.4699 22.84 24.7399 21.97 23.8599 20.95C23.3999 20.41 22.8099 19.87 22.1099 19.63C21.9999 19.59 21.8899 19.56 21.7799 19.54C21.5299 19.5 21.2599 19.5 20.9999 19.5C20.7399 19.5 20.4699 19.5 20.2099 19.55C20.0999 19.57 19.9899 19.6 19.8799 19.64C19.1799 19.88 18.5999 20.42 18.1299 20.96C17.2599 21.98 16.5299 22.85 15.6499 23.87C14.3399 25.18 12.7299 26.63 13.0299 28.66C13.3199 29.68 14.0499 30.69 15.3599 30.98C16.0899 31.13 18.4199 30.54 20.8999 30.54H21.0799C23.5599 30.54 25.8899 31.12 26.6199 30.98C27.9299 30.69 28.6599 29.67 28.9499 28.66C29.2599 26.62 27.6499 25.17 26.3399 23.86V23.86Z" fill="#5F5F5F"/>
</svg>
