<svg width="182" height="42" viewBox="0 0 182 42" fill="none" xmlns="http://www.w3.org/2000/svg">
<path d="M50.9372 14.9644C46.381 14.9644 42.9796 18.7017 42.9796 23.9088C42.9796 28.906 46.2551 32.3494 50.9372 32.3494C55.4935 32.3494 58.8739 28.612 58.8739 23.4049C58.8739 18.4288 55.6194 14.9644 50.9372 14.9644ZM50.9372 30.2917C47.9558 30.2917 46.0031 27.8561 46.0031 23.9508C46.0031 19.8775 48.1027 17.022 50.9372 17.022C53.9187 17.022 55.8714 19.4576 55.8714 23.3629C55.8714 27.4362 53.7718 30.2917 50.9372 30.2917ZM71.5767 20.0035C71.5767 19.4156 71.2197 19.2896 70.2119 19.2896C68.7212 19.2896 68.3222 19.6886 68.3222 20.2765C68.3222 20.7384 68.8262 21.4103 68.8262 23.09V26.5124C68.8262 28.549 67.5244 30.5017 65.8867 30.5017C64.2909 30.5017 63.703 29.4099 63.703 27.1213V19.9825C63.703 19.3946 63.3461 19.2686 62.3383 19.2686C61.0365 19.2686 60.6166 19.6676 60.6166 20.2555C60.6166 20.7174 60.9525 21.3893 60.9525 23.069V27.2683C60.9525 30.4597 62.3383 32.3074 65.1518 32.3074C67.5244 32.3074 68.6372 30.4387 68.9521 30.4387C69.0571 30.4387 69.1201 30.4807 69.1831 31.3625C69.2671 31.8455 69.456 32.2864 69.855 32.2864C70.1069 32.2864 70.3169 32.2654 70.9888 32.0554C71.9126 31.7615 72.3745 31.5305 72.3745 30.9216C72.3745 30.2917 71.5767 29.4939 71.5767 27.7302V20.0035ZM80.2482 19.1217C78.1275 19.1217 77.7706 21.1373 77.3297 21.1373C77.1827 21.1373 77.0987 21.0323 77.0987 20.6334V19.7935C77.0987 19.3946 76.8258 19.1217 76.4268 19.1217C76.3009 19.1217 75.8389 19.1427 75.1881 19.3316C74.3482 19.5416 73.8023 19.7515 73.8023 20.4234C73.8023 21.3053 74.3482 21.6622 74.3482 23.3419V28.3601C74.3482 30.0398 74.0123 30.7536 74.0123 31.1736C74.0123 31.7825 74.4112 32.1814 75.734 32.1814C77.2247 32.1814 77.6236 31.7825 77.6236 31.1736C77.6236 30.7536 77.0987 30.0398 77.0987 28.3601V24.8327C77.0987 23.153 77.8966 21.5152 78.6945 21.5152C78.9884 21.5152 79.0934 21.6412 79.1774 21.8932C79.3873 22.5651 79.8073 22.943 80.4791 22.943C81.571 22.943 82.2008 22.1661 82.2008 21.0323C82.2008 19.8355 81.445 19.1217 80.2482 19.1217ZM90.9983 15.1533C89.9695 15.1533 88.9407 15.2373 87.8909 15.2373C87.219 15.2373 86.5261 15.1533 85.8752 15.1533C85.2663 15.1533 84.9094 15.5523 84.9094 16.1402C84.9094 16.6021 85.2453 17.274 85.2453 18.9537V28.3601C85.2453 30.0398 84.9094 30.7536 84.9094 31.1736C84.9094 31.7825 85.2873 32.1814 86.6521 32.1814C88.1638 32.1814 88.5627 31.7825 88.5627 31.1736C88.5627 30.7536 88.0378 30.0398 88.0378 28.3601V26.8063C88.0378 25.9455 88.2688 25.6935 89.0457 25.6935H90.7044C94.9876 25.6935 97.3392 23.6989 97.3392 20.1085C97.3602 16.854 95.1346 15.1533 90.9983 15.1533ZM90.4524 23.6149C88.5837 23.6149 88.0588 23.5099 88.0588 22.943V18.6807C88.0588 17.316 88.3108 17.19 90.6624 17.19C93.14 17.19 94.3577 18.1138 94.3577 20.1085C94.3577 22.5231 93.161 23.6149 90.4524 23.6149ZM103.932 19.1217C100.321 19.1217 98.0111 21.6412 98.0111 25.5675C98.0111 29.7248 100.447 32.3494 104.268 32.3494C106.074 32.3494 107.564 31.7195 108.53 30.5437C108.74 30.2917 108.824 29.9978 108.824 29.7038C108.824 29.5359 108.782 29.3469 108.614 29.2209C108.488 29.1159 108.341 29.0529 108.131 29.0529C107.921 29.0529 107.711 29.1369 107.375 29.3049C106.452 29.8298 105.696 30.0608 104.688 30.0608C102.462 30.0608 100.93 28.465 100.93 26.1764C100.93 26.0505 100.972 26.0085 101.077 26.0085H108.509C109.16 26.0085 109.496 25.6095 109.496 24.7487C109.517 21.3053 107.333 19.1217 103.932 19.1217ZM106.452 24.1608H101.077C100.972 24.1608 100.93 24.1188 100.93 23.9928C100.93 22.3131 102.147 20.9693 103.911 20.9693C105.57 20.9693 106.599 22.1241 106.599 23.9928C106.62 24.1188 106.557 24.1608 106.452 24.1608ZM117.664 29.9348C117.433 29.9348 117.265 30.0188 117.076 30.1028C116.551 30.3757 116.32 30.5017 115.9 30.5017C115.039 30.5017 114.598 29.8298 114.598 28.591V21.9982C114.598 21.3893 114.766 21.2213 115.228 21.2213H116.95C117.538 21.2213 117.706 20.8854 117.706 20.2975C117.706 19.6466 117.496 19.3946 116.95 19.3946H115.312C114.787 19.3946 114.598 19.2266 114.598 18.6177V17.6939C114.598 17.043 114.262 16.7701 113.737 16.7701C112.625 16.7701 112.646 18.2818 110.819 19.4366C110.147 19.8985 109.895 20.0875 109.895 20.4864C109.895 20.9693 110.021 21.2423 110.525 21.2423H111.176C111.68 21.2423 111.848 21.4103 111.848 22.0192V28.57C111.848 31.2366 113.149 32.3704 115.396 32.3704C116.446 32.3704 117.412 31.9504 118 31.2786C118.21 31.0476 118.294 30.8166 118.294 30.6067C118.294 30.2077 118 29.9348 117.664 29.9348ZM126.629 15.1533C125.6 15.1533 124.572 15.2373 123.522 15.2373C122.85 15.2373 122.157 15.1533 121.506 15.1533C120.897 15.1533 120.54 15.5523 120.54 16.1402C120.54 16.6021 120.876 17.274 120.876 18.9537V28.3601C120.876 30.0398 120.54 30.7536 120.54 31.1736C120.54 31.7825 120.918 32.1814 122.283 32.1814C123.795 32.1814 124.194 31.7825 124.194 31.1736C124.194 30.7536 123.669 30.0398 123.669 28.3601V26.8063C123.669 25.9455 123.9 25.6935 124.677 25.6935H126.335C130.618 25.6935 132.97 23.6989 132.97 20.1085C132.991 16.854 130.765 15.1533 126.629 15.1533ZM126.083 23.6149C124.215 23.6149 123.69 23.5099 123.69 22.943V18.6807C123.69 17.316 123.942 17.19 126.293 17.19C128.771 17.19 129.989 18.1138 129.989 20.1085C129.989 22.5231 128.813 23.6149 126.083 23.6149ZM139.773 19.1217C136.141 19.1217 133.579 21.8932 133.579 25.7565C133.579 29.6408 136.099 32.3494 139.773 32.3494C143.405 32.3494 145.946 29.5779 145.946 25.6725C145.946 21.8092 143.426 19.1217 139.773 19.1217ZM139.773 30.5227C137.631 30.5227 136.497 28.801 136.497 25.8405C136.497 22.796 137.652 20.9693 139.773 20.9693C141.915 20.9693 143.048 22.649 143.048 25.6305C143.048 28.675 141.894 30.5227 139.773 30.5227ZM150.439 14.1455C150.439 13.7466 150.166 13.4736 149.767 13.4736C149.641 13.4736 149.179 13.4946 148.528 13.6836C147.689 13.8936 147.143 14.1035 147.143 14.7754C147.143 15.6573 147.689 16.0142 147.689 17.6939V28.3601C147.689 30.0398 147.353 30.7536 147.353 31.1736C147.353 31.7825 147.752 32.1814 149.074 32.1814C150.355 32.1814 150.796 31.7825 150.796 31.1736C150.796 30.7536 150.439 30.0398 150.439 28.3601V14.1455ZM154.323 14.0825C153.085 14.0825 152.287 14.7334 152.287 15.7412C152.287 16.7281 153.085 17.4 154.323 17.4C155.562 17.4 156.339 16.7281 156.339 15.7412C156.339 14.7544 155.562 14.0825 154.323 14.0825ZM155.898 19.8145C155.898 19.4156 155.604 19.1427 155.226 19.1427C155.1 19.1427 154.617 19.1637 153.966 19.3526C153.169 19.5626 152.581 19.7725 152.581 20.4444C152.581 21.3263 153.169 21.6832 153.169 23.3629V28.3601C153.169 30.0398 152.644 30.7536 152.644 31.1736C152.644 31.7825 153.043 32.1814 154.533 32.1814C155.835 32.1814 156.255 31.7825 156.255 31.1736C156.255 30.7536 155.919 30.0398 155.919 28.3601V19.8145H155.898ZM163.877 20.9693C165.011 20.9693 165.745 21.6832 165.745 22.859C165.745 23.6989 166.249 24.2028 167.215 24.2028C168.076 24.2028 168.685 23.6149 168.685 22.922C168.685 20.7594 166.711 19.1427 163.94 19.1427C160.265 19.1427 157.662 21.8302 157.662 25.7145C157.662 29.6618 160.202 32.3704 163.919 32.3704C165.724 32.3704 167.173 31.7405 168.118 30.5647C168.328 30.3127 168.412 30.0188 168.412 29.7248C168.412 29.5569 168.37 29.3679 168.202 29.2419C168.076 29.1369 167.929 29.0739 167.719 29.0739C167.509 29.0739 167.299 29.1579 166.963 29.3259C166.039 29.8508 165.283 30.0818 164.276 30.0818C162.008 30.0818 160.538 28.3181 160.538 25.5885C160.559 22.838 161.924 20.9693 163.877 20.9693ZM179.708 19.3106C178.532 19.3106 178.049 19.5206 178.049 20.2975C178.049 20.5914 178.217 20.8224 178.217 21.3263C178.217 21.7252 178.112 22.2921 177.734 23.195L176.097 27.2473C175.971 27.5412 175.845 27.7722 175.698 27.7722C175.551 27.7722 175.446 27.5622 175.299 27.2473L173.64 23.195C173.262 22.2921 173.157 21.7042 173.157 21.3263C173.157 20.8224 173.325 20.5914 173.325 20.2975C173.325 19.4576 172.863 19.3106 171.288 19.3106C169.756 19.3106 169.189 19.4156 169.189 20.2975C169.189 20.8224 169.84 21.1373 170.68 23.09L173.955 30.9846C174.039 31.1526 174.081 31.3415 174.081 31.5305C174.081 31.7405 174.039 32.0134 173.934 32.2654L172.926 34.701C172.758 35.0999 172.653 35.2469 172.527 35.2469C172.233 35.2469 172.254 34.575 171.246 34.575C170.407 34.575 169.861 35.2049 169.861 36.0447C169.861 37.1365 170.617 37.9134 171.771 37.9134C173.01 37.9134 173.808 37.1575 174.522 35.4778L179.687 23.111C180.527 21.1373 181.157 20.8434 181.157 20.3185C181.157 19.5416 180.758 19.3106 179.708 19.3106Z" fill="#0D0D0D"/>
<path d="M36.6807 6.79666C36.6597 6.46072 36.1138 5.9568 35.7148 5.80983C30.2348 3.89916 24.7337 2.00948 19.2327 0.161803C18.7288 -0.00616795 18.0569 -0.0691571 17.553 0.0988139C11.9889 1.96749 6.44589 3.85717 0.923846 5.83082C0.503918 5.9778 0 6.71267 0 7.1536C0.0419928 10.2191 -0.0629789 13.3265 0.377945 16.329C1.99467 27.4781 7.81066 35.9186 17.406 41.7766C17.8469 42.0286 18.6658 42.0916 19.1067 41.8396C25.6576 38.0813 30.4238 32.7272 33.3632 26.3653C33.4472 26.1973 33.4052 26.0083 33.3003 25.8824C32.0405 24.4126 30.9067 23.1108 29.7309 21.7461C29.5629 21.5571 29.2689 21.5361 29.08 21.7041C28.681 22.061 28.3031 22.397 27.9462 22.7329C26.9804 23.6357 26.0985 24.6226 25.0487 25.4204C24.1038 26.1343 23.096 26.0083 22.5711 24.8325C21.6893 22.8589 23.8729 21.0742 24.1878 19.1005C24.0409 20.8432 22.4241 22.166 22.886 23.8877C23.243 25.1685 24.1038 25.3155 25.0277 24.4756C26.2245 23.3628 27.3793 22.187 28.4501 20.9482C30.0458 19.0795 30.1718 16.8539 28.4711 15.0692C27.0643 13.6205 25.3846 12.2977 23.5999 11.3739C20.8074 9.94611 17.301 11.3109 15.3064 13.7255C14.0046 15.3002 12.2619 16.602 10.5402 17.7358C9.09143 18.6806 8.92346 19.1005 9.97328 20.5493C11.611 22.7959 13.8996 23.0269 16.3562 22.7539C20.1145 22.355 21.5633 26.1343 20.9124 28.5699C19.8206 32.6222 14.4875 34.4069 11.1701 31.6144C9.55335 30.2496 8.10461 28.4859 7.05479 26.6592C3.94733 21.3052 2.83452 15.4262 3.17046 9.27423C3.19146 8.81231 3.84234 8.14043 4.34625 7.97245C8.60852 6.43972 12.9128 4.96997 17.217 3.54222C17.8259 3.33226 18.6028 3.26927 19.1907 3.45823C23.7049 4.94898 28.1981 6.50271 32.6704 8.09843C33.1113 8.24541 33.6572 8.98028 33.6152 9.4212C33.3423 12.8226 33.0483 16.245 32.5234 19.6254C32.4184 20.2343 32.3764 20.7382 32.3764 21.1582C32.4394 22.8169 34.77 23.1318 35.2739 21.5361C36.7227 16.7279 36.8486 11.7938 36.6807 6.79666ZM16.3562 16.434C16.0412 16.434 15.7683 16.14 15.7683 15.7621C15.7683 15.3842 16.0202 15.0902 16.3562 15.0902C16.6711 15.0902 16.9441 15.3842 16.9441 15.7621C16.9231 16.14 16.6711 16.434 16.3562 16.434Z" fill="#FCC425"/>
</svg>
