<svg width="42" height="42" viewBox="0 0 42 42" fill="none" xmlns="http://www.w3.org/2000/svg">
<circle cx="21" cy="21" r="21" fill="#9E9E9E"/>
<path d="M19.0001 28V23H23.0001V28C23.0001 28.55 23.4501 29 24.0001 29H27.0001C27.5501 29 28.0001 28.55 28.0001 28V21H29.7001C30.1601 21 30.3801 20.43 30.0301 20.13L21.6701 12.6C21.2901 12.26 20.7101 12.26 20.3301 12.6L11.9701 20.13C11.6301 20.43 11.8401 21 12.3001 21H14.0001V28C14.0001 28.55 14.4501 29 15.0001 29H18.0001C18.5501 29 19.0001 28.55 19.0001 28Z" fill="#5F5F5F"/>
</svg>
